<?xml version="1.0" standalone="no"?><!DOCTYPE svg PUBLIC "-//W3C//DTD SVG 1.1//EN" "http://www.w3.org/Graphics/SVG/1.1/DTD/svg11.dtd"><svg t="1524451778621" class="icon" style="" viewBox="0 0 1024 1024" version="1.1" xmlns="http://www.w3.org/2000/svg" p-id="986" xmlns:xlink="http://www.w3.org/1999/xlink" width="200" height="200"><defs><style type="text/css"></style></defs><path d="M25.3 1006.6l-3.8-3.8c-17.5-17.6-17.5-46 0-63.5L278.9 682c17.5-17.5 45.9-17.5 63.4 0l3.8 3.8c17.5 17.5 17.5 45.9 0 63.4L88.7 1006.6c-17.5 17.5-45.9 17.5-63.4 0z" fill="#1A7FC0" p-id="987"></path><path d="M25.3 1006.6l-1.9-1.9 320.8-320.8 33.6 33.6-289.1 289.1c-17.5 17.5-45.9 17.5-63.4 0z" fill="#2D416C" p-id="988"></path><path d="M608 420m-408 0a408 408 0 1 0 816 0 408 408 0 1 0-816 0Z" fill="#83C6EF" p-id="989"></path><path d="M896.4 131.7L319.6 708.4c0.8 0.8 1.4 1.6 2.2 2.4 160.6 158 418.9 156 577-4.6 157.3-159.8 155.9-416.3-2.4-574.5z" fill="#429BCF" p-id="990"></path><path d="M608 420m-329.3 0a329.3 329.3 0 1 0 658.6 0 329.3 329.3 0 1 0-658.6 0Z" fill="#FFFFFF" p-id="991"></path><path d="M608 420m-240.8 0a240.8 240.8 0 1 0 481.6 0 240.8 240.8 0 1 0-481.6 0Z" fill="#FFD858" p-id="992"></path><path d="M778.2 249.8L437.8 590.3c0.5 0.5 0.8 1 1.3 1.4 94.8 93.3 247.3 92.1 340.6-2.7 92.8-94.4 92-245.8-1.5-339.2z" fill="#FFB103" p-id="993"></path><path d="M608 420m-145.3 0a145.3 145.3 0 1 0 290.6 0 145.3 145.3 0 1 0-290.6 0Z" fill="#2D416C" p-id="994"></path><path d="M679.95932 397.210387a43.4 22.8 63.268 1 0 40.726286-20.511695 43.4 22.8 63.268 1 0-40.726286 20.511695Z" fill="#AAC1E8" p-id="995"></path><path d="M517.254011 493.3931a21.7 11.4 44.999 1 0 16.121754-16.122316 21.7 11.4 44.999 1 0-16.121754 16.122316Z" fill="#AAC1E8" p-id="996"></path></svg>